<svg xmlns="http://www.w3.org/2000/svg" viewBox="0 0 256 256"><rect width="256" height="256" rx="56" fill="#000"/><path d="M214 48L208 45L197 42L194 39L190 31L182 23L166 14L141 6L125 4L124 5L117 5L116 6L105 8L90 13L72 22L62 29L49 42L44 51L41 54L35 57L29 63L21 74L16 84L11 98L12 117L18 137L18 142L16 145L15 152L14 153L14 175L15 176L15 180L20 191L34 204L35 206L35 211L36 212L36 217L37 218L37 223L31 230L30 238L24 255L224 255L222 248L220 245L232 232L236 226L243 208L244 197L245 196L245 180L244 179L244 169L243 168L242 156L240 151L240 147L237 140L237 137L240 133L240 126L239 124L233 119L233 116L234 115L234 102L230 91L228 69L224 59Z" fill="#fff" fill-rule="evenodd"/><path d="M171 236L170 236L169 237L167 237L166 238L161 238L160 239L157 240L158 240L159 241L160 240L164 240L165 239L168 238L170 236ZM62 225L62 226L63 226ZM53 201L53 205L54 206L54 208L55 209L55 212L56 213L56 215L57 216L57 217L58 218L59 221L60 221L60 220L58 217L58 215L56 212L56 209L55 208L55 206L54 205L54 203L53 202ZM160 181L161 181L162 182L166 182L167 181L176 181L173 179L163 179ZM136 177L137 178L138 177L140 177L142 175L144 175L145 174L147 174L148 173L150 173L151 172L154 172L155 171L158 171L159 170L164 170L165 169L170 169L171 170L176 170L177 171L179 171L180 172L183 172L184 173L185 173L187 175L188 174L188 173L187 172L185 172L183 170L181 170L180 169L176 169L175 168L170 168L169 169L168 168L157 168L156 169L152 169L151 170L148 170L147 171L145 171L144 172L142 172L141 173L138 173L136 175ZM31 152L30 153L31 156L30 157L30 159L29 160L29 165L30 166L31 166L31 164L33 162L33 161L34 160L35 160L36 159L38 159L39 160L39 161L41 164L40 165L39 165L36 168L36 170L35 171L35 176L36 177L36 178L38 180L39 180L40 181L42 181L43 182L43 184L46 184L46 183L47 182L47 180L45 178L41 178L38 175L38 171L39 170L39 169L41 167L42 168L42 169L44 169L44 164L43 163L43 161L42 160L42 159L40 157L40 156L36 152ZM34 154L36 156L34 158L33 158L32 157L32 156ZM165 142L164 141L162 141L159 143L159 145L160 145ZM176 140L175 140L172 143L172 145L173 146L174 146L177 144L177 141ZM73 30L70 33L69 33L66 36L65 36L55 46L55 47L51 52L49 58L48 59L46 59L45 60L42 61L40 63L39 63L31 72L31 73L27 78L27 79L26 80L26 81L25 82L25 83L22 88L22 90L20 93L20 95L19 96L19 98L18 99L18 110L19 111L19 116L20 117L20 121L21 122L21 124L22 125L22 128L23 129L23 131L24 132L24 135L25 136L25 139L26 140L26 143L24 145L24 146L22 149L22 154L21 155L21 174L22 175L22 178L23 179L23 181L24 182L25 185L27 187L27 188L33 194L34 194L38 198L39 198L41 200L41 206L42 207L42 211L43 212L43 216L44 217L44 228L43 229L40 230L38 232L38 233L37 234L37 239L36 240L36 242L35 243L35 245L34 246L34 248L33 249L33 251L32 252L32 254L31 255L36 255L37 254L37 252L38 251L38 249L39 248L39 245L40 244L40 240L41 239L41 235L43 233L44 233L45 234L45 235L47 237L51 237L52 238L54 238L55 239L57 239L58 240L60 240L63 242L65 242L66 243L68 243L69 244L71 244L72 245L74 245L75 246L77 246L78 247L81 247L82 248L84 248L85 249L87 249L88 250L90 250L91 251L93 251L94 252L96 252L97 253L98 253L99 254L101 254L102 255L115 255L114 255L113 254L111 254L110 253L108 253L107 252L105 252L104 251L102 251L101 250L99 250L96 248L93 248L90 246L88 246L87 245L85 245L84 244L82 244L81 243L78 243L77 242L75 242L74 241L71 241L70 240L68 240L67 239L64 239L63 238L61 238L60 237L58 237L57 236L55 236L52 234L49 234L48 233L48 232L49 231L49 229L48 228L48 216L47 215L47 212L48 211L48 210L47 209L47 208L48 207L48 206L47 205L47 200L50 198L52 198L52 197L51 196L51 195L46 195L45 196L44 196L43 195L41 195L38 192L37 192L31 186L31 185L29 183L29 182L26 177L26 174L25 173L25 167L24 166L24 162L25 161L25 154L26 153L26 150L27 149L27 148L30 145L31 145L32 144L36 144L37 145L38 145L42 149L43 149L47 153L47 155L48 156L48 157L49 158L49 160L50 161L50 164L51 165L52 165L55 162L54 162L53 161L53 160L56 157L56 155L54 153L56 150L54 147L55 146L55 142L54 142L53 141L58 138L60 138L63 136L65 136L68 134L70 134L73 132L75 132L78 130L80 130L81 129L82 129L87 126L89 126L90 125L95 125L96 126L96 128L97 129L98 132L103 137L104 137L107 139L109 139L110 140L112 140L113 141L118 141L119 142L131 142L132 141L137 141L138 140L141 140L142 139L144 139L151 134L151 133L152 132L152 130L155 127L157 127L158 126L161 126L162 125L169 125L170 126L172 126L173 127L172 128L169 129L173 129L174 128L178 132L178 133L180 136L180 139L181 140L181 144L182 144L183 143L183 140L184 139L189 142L191 142L192 143L195 143L196 144L201 144L202 145L208 145L209 144L213 144L214 143L216 143L217 142L218 142L221 139L224 140L226 142L226 144L227 145L227 147L228 148L228 151L229 152L229 155L230 156L230 160L231 161L231 167L232 168L232 179L233 180L233 194L232 195L232 199L231 200L231 204L230 205L230 208L229 209L229 211L227 214L227 216L226 217L226 218L225 219L224 222L222 224L222 225L219 228L218 228L216 230L216 232L215 233L215 234L211 238L210 237L210 236L211 235L207 239L206 242L203 245L202 245L200 247L197 248L195 250L195 252L193 254L192 254L191 255L201 255L203 253L204 253L209 248L211 250L211 254L212 255L216 255L216 253L214 250L214 247L213 246L214 245L214 244L215 243L216 240L220 236L220 235L225 230L225 229L227 227L227 226L229 224L229 223L231 220L231 218L232 217L232 216L233 215L233 213L235 210L235 207L236 206L236 203L237 202L237 192L238 191L238 187L237 186L237 171L236 170L236 164L235 163L235 158L234 157L234 153L233 152L233 149L232 148L232 146L231 145L231 143L230 142L230 140L229 139L229 135L233 131L233 128L232 127L229 127L227 125L227 123L226 122L226 114L227 113L227 102L226 101L226 99L225 98L225 96L222 91L222 89L223 88L223 87L222 86L222 75L221 74L221 70L220 69L220 67L219 66L218 63L216 61L216 60L211 55L210 55L208 53L207 53L206 52L204 52L203 51L201 51L200 50L198 50L197 49L193 49L192 48L191 48L190 47L190 46L189 45L189 44L188 43L188 42L187 41L187 40L186 39L185 36L179 30L178 30L175 27L174 27L172 25L171 25L166 22L164 22L161 20L158 20L155 18L153 18L152 17L150 17L149 16L147 16L146 15L144 15L143 14L140 14L139 13L135 13L134 12L120 12L119 13L115 13L114 14L111 14L110 15L107 15L106 16L104 16L103 17L101 17L100 18L98 18L97 19L95 19L94 20L92 20L91 21L90 21L89 22L88 22L87 23L86 23L85 24L84 24L83 25L82 25L81 26L78 27L76 29ZM206 248L207 247L208 248L207 249ZM213 242L214 243L214 244L213 245L212 245L211 244ZM52 162L53 161L54 162L53 163ZM44 145L45 144L46 145L46 146L45 147L44 146ZM37 139L38 138L39 138L40 139L40 140L39 141ZM39 138L40 137L41 138L40 139ZM181 132L182 131L183 132L182 133ZM172 128L173 127L174 128L173 129ZM224 126L225 127L225 130L226 131L224 134L223 133L223 127ZM222 126L223 125L224 126L223 127ZM50 117L51 116L52 117L51 118ZM179 127L180 126L180 124L181 123L181 121L184 118L186 118L187 117L189 117L190 116L196 116L197 115L200 115L201 116L207 116L208 117L210 117L211 118L213 118L219 122L218 123L218 130L219 131L219 134L220 135L220 137L219 138L218 138L216 140L214 140L213 141L210 141L209 142L201 142L200 141L195 141L194 140L192 140L191 139L189 139L188 138L187 138L184 135L185 134L184 133L184 131ZM51 116L52 115L53 116L52 117ZM98 125L99 124L99 121L102 118L103 118L106 116L108 116L109 115L111 115L112 114L117 114L118 113L132 113L133 114L136 114L137 115L139 115L140 116L142 116L143 117L144 117L146 119L146 123L148 125L148 127L149 128L149 131L147 133L145 133L144 132L144 135L143 136L142 136L141 137L139 137L138 138L134 138L133 139L119 139L118 138L113 138L112 137L110 137L109 136L107 136L105 134L104 134L100 130L100 129L99 128ZM52 114L53 113L54 114L53 115ZM53 113L54 112L55 113L54 114ZM40 112L41 111L42 112L41 113ZM24 114L24 112L25 111L26 111L27 112L27 113L25 115ZM41 111L42 110L43 111L42 112ZM32 110L33 109L34 110L33 111ZM50 102L51 103L43 111L42 110L42 109L49 102ZM50 102L51 101L52 102L51 103ZM24 100L25 101L25 103L24 104L23 103L23 101ZM32 94L33 93L34 94L33 95ZM33 92L34 91L35 92L35 93L34 94L33 93ZM61 81L62 80L63 80L64 81L63 82L62 82ZM66 80L67 79L68 80L67 81ZM67 79L68 78L69 79L68 80ZM68 78L69 77L70 78L69 79ZM69 77L70 76L71 77L70 78ZM57 76L58 75L59 75L60 76L59 77L58 77ZM60 75L61 74L62 75L61 76ZM62 74L63 73L64 74L63 75ZM212 67L213 66L214 67L213 68ZM74 63L75 62L76 63L75 64ZM204 59L205 58L208 59L210 61L210 62L213 65L213 66L212 67ZM203 58L204 57L205 58L204 59ZM144 48L145 47L146 47L147 48L146 49L145 49ZM142 47L143 46L144 46L145 47L144 48L143 48ZM53 132L55 129L55 125L54 124L55 123L55 119L56 118L56 117L58 115L58 114L60 111L60 107L59 106L61 104L61 102L62 101L61 100L61 97L66 92L67 92L68 91L68 90L66 88L67 87L67 86L68 85L69 85L71 83L71 81L72 80L72 78L73 77L73 76L76 74L75 73L72 73L71 72L71 71L76 66L77 66L82 63L84 63L85 62L83 60L85 58L87 58L88 57L92 57L93 56L95 56L96 55L99 55L99 54L98 54L96 52L98 50L122 50L121 49L118 48L117 47L118 46L120 46L121 47L127 47L128 48L131 48L132 49L135 49L136 50L138 50L139 51L142 51L143 52L144 51L147 53L148 53L149 52L148 51L149 50L150 50L151 51L152 50L153 51L156 52L158 54L159 54L159 53L160 52L162 55L163 55L164 54L167 53L169 51L171 53L172 53L173 52L175 52L177 49L178 50L178 52L179 53L188 53L191 56L191 57L196 62L196 63L201 68L201 69L203 71L203 72L207 77L207 78L208 79L209 82L211 84L211 86L213 88L213 89L214 90L214 91L215 92L215 93L216 94L216 95L219 100L219 105L220 106L220 112L221 113L221 120L220 121L217 118L216 118L214 116L213 116L212 115L210 115L209 114L206 114L205 113L189 113L188 114L186 114L185 115L184 115L182 117L181 117L178 120L177 119L177 117L176 117L175 118L175 122L174 123L171 123L170 122L161 122L160 123L157 123L156 124L153 125L152 124L152 122L149 117L146 117L144 115L143 115L138 112L135 112L134 111L130 111L129 110L117 110L116 111L111 111L110 112L108 112L107 113L105 113L103 115L100 116L96 122L90 122L87 124L84 124L81 126L79 126L78 127L76 127L73 129L71 129L68 131L66 131L63 133L61 133L60 134L59 134L58 135L56 135L55 136L54 135L54 133ZM157 96L156 97L156 100L155 101L155 102L153 104L155 104L157 102L157 100L158 99L158 97ZM215 97L212 94L211 94L210 93L202 93L201 94L199 94L198 95L196 95L191 98L189 98L188 99L187 99L182 102L180 102L179 103L179 105L180 105L181 106L183 106L184 105L187 105L188 104L190 104L193 102L195 102L200 99L202 99L203 98L205 98L206 97L212 97L214 99L215 99ZM91 96L91 97L92 97L93 96L94 96L99 93L109 93L110 94L113 94L114 95L116 95L117 96L119 96L122 98L124 98L125 99L127 99L130 101L132 101L133 102L136 102L137 103L140 103L141 104L147 104L150 102L149 101L147 101L144 99L142 99L141 98L139 98L136 96L134 96L133 95L131 95L128 93L126 93L125 92L123 92L122 91L120 91L119 90L117 90L116 89L113 89L112 88L102 88L101 89L99 89L98 90L97 90L95 92L94 92L92 94L92 95ZM167 46L168 45L171 48L169 50L168 49ZM166 45L167 44L168 45L167 46ZM180 42L181 43L181 47L179 49L176 49L175 48L175 47L176 46L178 46L179 45L179 43ZM178 41L179 40L180 41L180 42L179 43L178 42ZM177 40L178 39L179 40L178 41ZM90 39L91 38L92 38L93 39L92 40L91 40ZM92 38L93 37L96 37L97 38L96 39L93 39ZM76 38L77 37L78 38L77 39ZM175 37L176 36L177 37L176 38ZM96 37L97 36L99 36L100 37L99 38L97 38ZM78 37L79 36L80 37L79 38ZM74 36L76 39L70 45L70 46L71 47L73 47L74 46L75 46L77 44L79 46L79 47L78 48L77 48L75 50L74 50L72 52L72 55L84 55L85 56L82 58L81 57L79 57L78 58L75 58L74 59L70 59L67 57L67 54L66 53L66 52L62 56L62 59L63 60L63 62L64 62L65 63L64 64L61 65L59 67L58 67L47 78L47 80L50 80L56 76L57 76L58 77L56 79L55 79L50 84L49 84L48 85L48 86L45 89L45 91L48 91L53 88L55 88L56 87L60 87L61 88L60 91L59 92L58 92L57 91L57 90L56 91L55 91L54 92L51 93L49 95L48 95L34 110L33 109L33 108L36 103L36 101L38 99L38 97L37 96L38 95L39 92L41 90L40 90L39 89L38 90L37 90L35 92L34 91L34 90L36 87L35 87L34 86L36 84L36 83L37 82L38 83L43 78L43 77L40 80L39 79L39 78L42 75L43 75L47 71L46 71L43 74L42 74L40 76L40 77L34 83L34 84L33 85L33 86L31 88L31 89L30 90L30 91L27 96L27 98L25 101L24 100L24 97L25 96L25 94L26 93L26 91L27 90L27 88L28 87L28 86L29 85L30 82L32 80L32 79L34 77L34 76L40 70L40 69L42 67L43 67L45 65L46 65L47 64L49 64L50 63L53 62L53 60L52 59L52 58L55 55L55 54L58 51L58 50L62 46L62 45L65 42L66 42L70 38L71 38L73 36ZM174 36L175 35L176 36L175 37ZM79 36L80 35L81 36L80 37ZM158 33L159 32L160 32L162 34L161 35L160 35ZM156 32L157 31L158 31L159 32L158 33L157 33ZM155 31L156 30L157 31L156 32ZM113 31L114 30L121 30L122 29L126 29L127 30L135 30L136 31L140 31L141 32L143 32L144 33L146 33L147 34L148 34L149 35L151 35L152 36L149 38L146 38L145 37L143 37L142 36L140 36L139 35L135 35L134 34L131 34L130 33L125 33L124 32L114 32ZM156 26L157 25L159 25L160 26L159 27L157 27ZM157 25L156 26L147 26L146 25L146 26L145 27L143 27L142 26L139 26L138 25L133 25L132 24L120 24L119 25L118 25L120 25L121 26L120 27L118 27L117 28L110 28L109 29L105 29L104 30L97 30L96 31L94 31L93 32L91 32L90 33L88 33L83 36L81 36L80 35L82 33L85 32L87 30L88 30L89 29L90 29L95 26L97 26L98 25L101 25L102 24L106 24L107 23L109 23L105 23L104 22L105 21L110 21L111 20L117 20L118 19L127 19L126 18L127 17L132 17L133 18L137 18L138 19L141 19L142 20L145 20L146 21L148 21L149 22L151 22L152 23L154 23Z" fill="#000" fill-rule="evenodd"/></svg>